<svg data-v-fde0c5aa="" xmlns="http://www.w3.org/2000/svg" viewBox="0 0 300 300" class="iconAbove"><!----><defs data-v-fde0c5aa=""><linearGradient data-v-fde0c5aa="" gradientTransform="rotate(25)" id="35db2af4-e6f7-467a-b0ca-74d423a92a68" x1="0%" y1="0%" x2="100%" y2="0%"><stop data-v-fde0c5aa="" offset="0%" stop-color="#51A4FB" stop-opacity="1"></stop><stop data-v-fde0c5aa="" offset="100%" stop-color="#51A4FB" stop-opacity="1"></stop></linearGradient></defs><rect data-v-fde0c5aa="" fill="url(#35db2af4-e6f7-467a-b0ca-74d423a92a68)" x="0" y="0" width="300px" height="300px" class="logo-background-square"></rect><defs data-v-fde0c5aa=""><!----></defs><g data-v-fde0c5aa="" id="ea036091-34fa-4027-9cff-0ad979a0881f" fill="#ffffff" transform="matrix(3.9330216140543364,0,0,3.9330216140543364,31.39973380956885,192.66666666666666)"><path d="M6.28 7.56C7.21 7.14 7.86 6.27 7.86 5.15C7.86 3.55 6.60 2.38 5.04 2.38L1.37 2.38L1.37 12.88L5.39 12.88C6.95 12.88 8.19 11.71 8.19 10.13C8.19 8.87 7.39 7.91 6.28 7.56ZM7.02 5.20C7.02 6.33 6.11 7.23 4.95 7.23L2.21 7.23L2.21 3.22L4.95 3.22C6.09 3.22 7.02 4.06 7.02 5.20ZM5.29 12.04L2.21 12.04L2.21 8.03L5.29 8.03C6.44 8.03 7.35 8.93 7.35 10.04C7.35 11.18 6.44 12.04 5.29 12.04ZM10.48 12.88L11.31 12.88L11.31 0L10.48 0ZM17.17 13.02C19.18 13.02 20.81 11.39 20.81 9.38C20.81 7.37 19.18 5.74 17.17 5.74C15.16 5.74 13.53 7.37 13.53 9.38C13.53 11.39 15.16 13.02 17.17 13.02ZM17.17 12.20C15.59 12.20 14.33 10.96 14.33 9.38C14.33 7.81 15.59 6.56 17.17 6.56C18.73 6.56 19.99 7.81 19.99 9.38C19.99 10.96 18.73 12.20 17.17 12.20ZM28.96 5.88L28.96 7.07C28.30 6.25 27.28 5.74 26.15 5.74C24.13 5.74 22.51 7.35 22.51 9.38C22.51 11.39 24.13 13.02 26.15 13.02C27.28 13.02 28.30 12.50 28.96 11.69L28.96 13.48C28.96 15.03 27.70 16.29 26.15 16.29C24.97 16.29 23.96 15.58 23.54 14.53L22.79 14.88C23.35 16.21 24.64 17.12 26.15 17.12C28.16 17.12 29.79 15.49 29.79 13.48L29.79 5.88ZM26.15 12.20C24.57 12.20 23.31 10.94 23.31 9.38C23.31 7.81 24.57 6.56 26.15 6.56C27.70 6.56 28.96 7.81 28.96 9.38C28.96 10.94 27.70 12.20 26.15 12.20ZM35.25 5.74C34.49 5.74 33.81 6.07 33.34 6.63L33.34 5.88L32.52 5.88L32.52 12.88L33.34 12.88L33.34 8.38C33.34 7.37 34.16 6.54 35.18 6.54C36.19 6.54 37.01 7.37 37.01 8.38L37.01 12.88L37.82 12.88L37.82 8.38C37.82 6.91 36.61 5.74 35.25 5.74ZM43.58 13.02C45.59 13.02 47.22 11.39 47.22 9.38C47.22 7.37 45.59 5.74 43.58 5.74C41.56 5.74 39.94 7.37 39.94 9.38C39.94 11.39 41.56 13.02 43.58 13.02ZM43.58 12.20C42 12.20 40.74 10.96 40.74 9.38C40.74 7.81 42 6.56 43.58 6.56C45.13 6.56 46.39 7.81 46.39 9.38C46.39 10.96 45.13 12.20 43.58 12.20ZM58.06 5.88L56.05 11.92L54.02 5.88L53.23 5.88L51.20 11.92L49.21 5.88L48.30 5.88L50.72 12.88L51.63 12.88L53.64 7L55.63 12.88L56.54 12.88L58.94 5.88Z"></path></g><defs data-v-fde0c5aa=""><!----></defs><g data-v-fde0c5aa="" id="7c77a64d-8dfc-4d03-9947-5f35d327d555" stroke="none" fill="#ffffff" transform="matrix(1.5031484937527881,0,0,1.5031484937527881,74.84257531236058,32.17720812623667)"><path d="M27.143 94.794C14.932 94.794 5 84.862 5 72.652V35.498c0-3.549 2.877-6.427 6.428-6.427s6.428 2.878 6.428 6.427v37.155c0 5.121 4.166 9.287 9.287 9.287s9.287-4.166 9.287-9.287a9.278 9.278 0 0 0-5.068-8.279 6.43 6.43 0 0 1 5.868-11.443c7.433 3.814 12.056 11.37 12.056 19.72-.001 12.211-9.932 22.143-22.143 22.143z"></path><path d="M65.715 79.083a6.432 6.432 0 0 1-6.431-6.431c0-15.46-11.01-28.752-26.177-31.594a6.432 6.432 0 0 1-5.139-7.5 6.433 6.433 0 0 1 7.506-5.136c21.246 3.981 36.668 22.584 36.668 44.23a6.43 6.43 0 0 1-6.427 6.431z"></path><path d="M88.572 79.083a6.432 6.432 0 0 1-6.431-6.431c0-27.938-20.892-51.424-48.595-54.632a6.429 6.429 0 1 1 1.48-12.773C69.216 9.207 95 38.185 95 72.652a6.43 6.43 0 0 1-6.428 6.431z"></path></g><!----></svg>